<svg width="1056" height="290" viewBox="0 0 1056 290" fill="none" xmlns="http://www.w3.org/2000/svg">
<mask id="path-1-outside-1_51_222" maskUnits="userSpaceOnUse" x="219.198" y="60" width="826" height="166" fill="black">
<rect fill="white" x="219.198" y="60" width="826" height="166"/>
<path d="M277.591 223.673C266.6 223.673 256.947 221.668 248.63 217.658C240.461 213.648 234.001 207.93 229.248 200.504C224.644 193.079 222.268 184.242 222.119 173.994H247.07C247.219 181.865 249.892 188.623 255.09 194.267C260.437 199.762 267.863 202.509 277.368 202.509C286.131 202.509 292.962 200.504 297.864 196.494C302.765 192.336 305.215 186.989 305.215 180.454C305.215 174.959 303.73 170.429 300.76 166.865C297.938 163.152 293.482 159.885 287.393 157.063C281.304 154.092 273.432 151.048 263.779 147.929C250.857 143.77 241.352 138.052 235.263 130.775C229.174 123.349 226.129 114.289 226.129 103.596C226.129 91.2691 230.585 81.3183 239.496 73.7439C248.407 66.1694 260.66 62.3822 276.254 62.3822C291.403 62.3822 303.582 66.318 312.79 74.1894C321.998 81.9124 326.75 92.68 327.047 106.492H301.874C301.874 102.779 300.834 99.2148 298.755 95.7989C296.675 92.2344 293.705 89.3383 289.844 87.1106C285.982 84.7343 281.229 83.5461 275.586 83.5461C268.605 83.3976 262.739 85.1056 257.986 88.67C253.234 92.0859 250.857 96.7643 250.857 102.705C250.857 109.982 253.754 115.7 259.546 119.859C265.338 123.869 274.769 128.027 287.839 132.334C296.007 135.008 303.21 138.275 309.448 142.137C315.834 145.85 320.81 150.676 324.374 156.617C328.087 162.409 329.944 169.835 329.944 178.895C329.944 187.212 327.864 194.786 323.706 201.618C319.547 208.302 313.532 213.648 305.661 217.658C297.938 221.668 288.581 223.673 277.591 223.673ZM403.15 221V65.0555H455.949C467.83 65.0555 477.632 67.1348 485.355 71.2933C493.078 75.3033 498.796 80.8728 502.509 88.0017C506.222 95.1306 508.079 103.299 508.079 112.507C508.079 121.715 506.222 129.884 502.509 137.013C498.796 144.142 493.078 149.785 485.355 153.944C477.632 157.954 467.83 159.959 455.949 159.959H426.765V221H403.15ZM426.765 138.795H454.835C464.934 138.795 472.286 136.419 476.89 131.666C481.642 126.914 484.019 120.527 484.019 112.507C484.019 104.636 481.642 98.3237 476.89 93.5711C472.286 88.67 464.934 86.2194 454.835 86.2194H426.765V138.795ZM632.302 223.673C619.678 223.673 608.762 220.406 599.553 213.871C590.345 207.336 583.291 198.054 578.389 186.024C573.488 173.994 571.038 159.662 571.038 143.028C571.038 126.394 573.488 112.062 578.389 100.032C583.291 88.0017 590.345 78.7193 599.553 72.1844C608.762 65.6496 619.678 62.3822 632.302 62.3822C645.074 62.3822 655.99 65.6496 665.05 72.1844C674.258 78.7193 681.313 88.0017 686.214 100.032C691.115 112.062 693.566 126.394 693.566 143.028C693.566 159.662 691.115 173.994 686.214 186.024C681.313 198.054 674.258 207.336 665.05 213.871C655.99 220.406 645.074 223.673 632.302 223.673ZM632.302 201.396C643.441 201.396 652.426 196.42 659.258 186.469C666.09 176.37 669.506 161.89 669.506 143.028C669.506 124.166 666.09 109.76 659.258 99.8089C652.426 89.7096 643.441 84.66 632.302 84.66C621.014 84.66 611.955 89.7096 605.123 99.8089C598.439 109.76 595.098 124.166 595.098 143.028C595.098 161.89 598.439 176.37 605.123 186.469C611.955 196.42 621.014 201.396 632.302 201.396ZM798.63 221V86.2194H756.747V65.0555H864.126V86.2194H822.244V221H798.63ZM990.132 223.673C979.141 223.673 969.487 221.668 961.17 217.658C953.002 213.648 946.541 207.93 941.789 200.504C937.185 193.079 934.808 184.242 934.66 173.994H959.611C959.76 181.865 962.433 188.623 967.631 194.267C972.978 199.762 980.404 202.509 989.909 202.509C998.671 202.509 1005.5 200.504 1010.4 196.494C1015.31 192.336 1017.76 186.989 1017.76 180.454C1017.76 174.959 1016.27 170.429 1013.3 166.865C1010.48 163.152 1006.02 159.885 999.934 157.063C993.845 154.092 985.973 151.048 976.319 147.929C963.398 143.77 953.893 138.052 947.804 130.775C941.715 123.349 938.67 114.289 938.67 103.596C938.67 91.2691 943.125 81.3183 952.037 73.7439C960.948 66.1694 973.2 62.3822 988.795 62.3822C1003.94 62.3822 1016.12 66.318 1025.33 74.1894C1034.54 81.9124 1039.29 92.68 1039.59 106.492H1014.41C1014.41 102.779 1013.37 99.2148 1011.3 95.7989C1009.22 92.2344 1006.25 89.3383 1002.38 87.1106C998.523 84.7343 993.77 83.5461 988.127 83.5461C981.146 83.3976 975.28 85.1056 970.527 88.67C965.775 92.0859 963.398 96.7643 963.398 102.705C963.398 109.982 966.294 115.7 972.087 119.859C977.879 123.869 987.31 128.027 1000.38 132.334C1008.55 135.008 1015.75 138.275 1021.99 142.137C1028.38 145.85 1033.35 150.676 1036.91 156.617C1040.63 162.409 1042.48 169.835 1042.48 178.895C1042.48 187.212 1040.41 194.786 1036.25 201.618C1032.09 208.302 1026.07 213.648 1018.2 217.658C1010.48 221.668 1001.12 223.673 990.132 223.673Z"/>
</mask>
<path d="M277.591 223.673C266.6 223.673 256.947 221.668 248.63 217.658C240.461 213.648 234.001 207.93 229.248 200.504C224.644 193.079 222.268 184.242 222.119 173.994H247.07C247.219 181.865 249.892 188.623 255.09 194.267C260.437 199.762 267.863 202.509 277.368 202.509C286.131 202.509 292.962 200.504 297.864 196.494C302.765 192.336 305.215 186.989 305.215 180.454C305.215 174.959 303.73 170.429 300.76 166.865C297.938 163.152 293.482 159.885 287.393 157.063C281.304 154.092 273.432 151.048 263.779 147.929C250.857 143.77 241.352 138.052 235.263 130.775C229.174 123.349 226.129 114.289 226.129 103.596C226.129 91.2691 230.585 81.3183 239.496 73.7439C248.407 66.1694 260.66 62.3822 276.254 62.3822C291.403 62.3822 303.582 66.318 312.79 74.1894C321.998 81.9124 326.75 92.68 327.047 106.492H301.874C301.874 102.779 300.834 99.2148 298.755 95.7989C296.675 92.2344 293.705 89.3383 289.844 87.1106C285.982 84.7343 281.229 83.5461 275.586 83.5461C268.605 83.3976 262.739 85.1056 257.986 88.67C253.234 92.0859 250.857 96.7643 250.857 102.705C250.857 109.982 253.754 115.7 259.546 119.859C265.338 123.869 274.769 128.027 287.839 132.334C296.007 135.008 303.21 138.275 309.448 142.137C315.834 145.85 320.81 150.676 324.374 156.617C328.087 162.409 329.944 169.835 329.944 178.895C329.944 187.212 327.864 194.786 323.706 201.618C319.547 208.302 313.532 213.648 305.661 217.658C297.938 221.668 288.581 223.673 277.591 223.673ZM403.15 221V65.0555H455.949C467.83 65.0555 477.632 67.1348 485.355 71.2933C493.078 75.3033 498.796 80.8728 502.509 88.0017C506.222 95.1306 508.079 103.299 508.079 112.507C508.079 121.715 506.222 129.884 502.509 137.013C498.796 144.142 493.078 149.785 485.355 153.944C477.632 157.954 467.83 159.959 455.949 159.959H426.765V221H403.15ZM426.765 138.795H454.835C464.934 138.795 472.286 136.419 476.89 131.666C481.642 126.914 484.019 120.527 484.019 112.507C484.019 104.636 481.642 98.3237 476.89 93.5711C472.286 88.67 464.934 86.2194 454.835 86.2194H426.765V138.795ZM632.302 223.673C619.678 223.673 608.762 220.406 599.553 213.871C590.345 207.336 583.291 198.054 578.389 186.024C573.488 173.994 571.038 159.662 571.038 143.028C571.038 126.394 573.488 112.062 578.389 100.032C583.291 88.0017 590.345 78.7193 599.553 72.1844C608.762 65.6496 619.678 62.3822 632.302 62.3822C645.074 62.3822 655.99 65.6496 665.05 72.1844C674.258 78.7193 681.313 88.0017 686.214 100.032C691.115 112.062 693.566 126.394 693.566 143.028C693.566 159.662 691.115 173.994 686.214 186.024C681.313 198.054 674.258 207.336 665.05 213.871C655.99 220.406 645.074 223.673 632.302 223.673ZM632.302 201.396C643.441 201.396 652.426 196.42 659.258 186.469C666.09 176.37 669.506 161.89 669.506 143.028C669.506 124.166 666.09 109.76 659.258 99.8089C652.426 89.7096 643.441 84.66 632.302 84.66C621.014 84.66 611.955 89.7096 605.123 99.8089C598.439 109.76 595.098 124.166 595.098 143.028C595.098 161.89 598.439 176.37 605.123 186.469C611.955 196.42 621.014 201.396 632.302 201.396ZM798.63 221V86.2194H756.747V65.0555H864.126V86.2194H822.244V221H798.63ZM990.132 223.673C979.141 223.673 969.487 221.668 961.17 217.658C953.002 213.648 946.541 207.93 941.789 200.504C937.185 193.079 934.808 184.242 934.66 173.994H959.611C959.76 181.865 962.433 188.623 967.631 194.267C972.978 199.762 980.404 202.509 989.909 202.509C998.671 202.509 1005.5 200.504 1010.4 196.494C1015.31 192.336 1017.76 186.989 1017.76 180.454C1017.76 174.959 1016.27 170.429 1013.3 166.865C1010.48 163.152 1006.02 159.885 999.934 157.063C993.845 154.092 985.973 151.048 976.319 147.929C963.398 143.77 953.893 138.052 947.804 130.775C941.715 123.349 938.67 114.289 938.67 103.596C938.67 91.2691 943.125 81.3183 952.037 73.7439C960.948 66.1694 973.2 62.3822 988.795 62.3822C1003.94 62.3822 1016.12 66.318 1025.33 74.1894C1034.54 81.9124 1039.29 92.68 1039.59 106.492H1014.41C1014.41 102.779 1013.37 99.2148 1011.3 95.7989C1009.22 92.2344 1006.25 89.3383 1002.38 87.1106C998.523 84.7343 993.77 83.5461 988.127 83.5461C981.146 83.3976 975.28 85.1056 970.527 88.67C965.775 92.0859 963.398 96.7643 963.398 102.705C963.398 109.982 966.294 115.7 972.087 119.859C977.879 123.869 987.31 128.027 1000.38 132.334C1008.55 135.008 1015.75 138.275 1021.99 142.137C1028.38 145.85 1033.35 150.676 1036.91 156.617C1040.63 162.409 1042.48 169.835 1042.48 178.895C1042.48 187.212 1040.41 194.786 1036.25 201.618C1032.09 208.302 1026.07 213.648 1018.2 217.658C1010.48 221.668 1001.12 223.673 990.132 223.673Z" fill="#212121"/>
<path d="M248.63 217.658L247.648 219.658L247.655 219.662L247.662 219.665L248.63 217.658ZM229.248 200.504L227.355 201.678L227.363 201.692L227.372 201.705L229.248 200.504ZM222.119 173.994V171.766H219.859L219.892 174.026L222.119 173.994ZM247.07 173.994L249.298 173.952L249.256 171.766H247.07V173.994ZM255.09 194.267L253.452 195.776L253.472 195.798L253.494 195.82L255.09 194.267ZM297.864 196.494L299.274 198.219L299.29 198.206L299.305 198.193L297.864 196.494ZM300.76 166.865L298.986 168.213L299.016 168.253L299.048 168.291L300.76 166.865ZM287.393 157.063L286.416 159.065L286.436 159.075L286.456 159.084L287.393 157.063ZM263.779 147.929L264.463 145.809L264.461 145.808L263.779 147.929ZM235.263 130.775L233.54 132.188L233.547 132.196L233.554 132.205L235.263 130.775ZM312.79 74.1894L311.342 75.8828L311.35 75.8896L311.358 75.8963L312.79 74.1894ZM327.047 106.492V108.72H329.324L329.275 106.444L327.047 106.492ZM301.874 106.492H299.646V108.72H301.874V106.492ZM298.755 95.7989L296.83 96.9214L296.841 96.9394L296.852 96.9572L298.755 95.7989ZM289.844 87.1106L288.676 89.0079L288.703 89.0244L288.73 89.0402L289.844 87.1106ZM275.586 83.5461L275.538 85.7734L275.562 85.7739H275.586V83.5461ZM257.986 88.67L259.287 90.479L259.305 90.4658L259.323 90.4522L257.986 88.67ZM259.546 119.859L258.247 121.669L258.262 121.68L258.278 121.691L259.546 119.859ZM287.839 132.334L287.141 134.45L287.146 134.452L287.839 132.334ZM309.448 142.137L308.275 144.031L308.302 144.047L308.328 144.063L309.448 142.137ZM324.374 156.617L322.464 157.763L322.481 157.792L322.499 157.819L324.374 156.617ZM323.706 201.618L325.597 202.795L325.603 202.786L325.609 202.777L323.706 201.618ZM305.661 217.658L304.65 215.673L304.642 215.677L304.634 215.681L305.661 217.658ZM277.591 221.446C266.872 221.446 257.56 219.491 249.597 215.652L247.662 219.665C256.333 223.846 266.328 225.901 277.591 225.901V221.446ZM249.611 215.659C241.796 211.822 235.65 206.375 231.124 199.304L227.372 201.705C232.351 209.486 239.126 215.475 247.648 219.658L249.611 215.659ZM231.141 199.331C226.785 192.303 224.49 183.876 224.347 173.962L219.892 174.026C220.045 184.607 222.503 193.854 227.355 201.678L231.141 199.331ZM222.119 176.222H247.07V171.766H222.119V176.222ZM244.843 174.036C245.001 182.436 247.874 189.72 253.452 195.776L256.729 192.757C251.91 187.526 249.436 181.294 249.298 173.952L244.843 174.036ZM253.494 195.82C259.356 201.845 267.415 204.737 277.368 204.737V200.282C268.311 200.282 261.518 197.678 256.687 192.713L253.494 195.82ZM277.368 204.737C286.449 204.737 293.846 202.66 299.274 198.219L296.453 194.77C292.079 198.349 285.812 200.282 277.368 200.282V204.737ZM299.305 198.193C304.714 193.603 307.443 187.631 307.443 180.454H302.987C302.987 186.348 300.815 191.069 296.422 194.796L299.305 198.193ZM307.443 180.454C307.443 174.539 305.834 169.475 302.471 165.439L299.048 168.291C301.626 171.384 302.987 175.38 302.987 180.454H307.443ZM302.533 165.517C299.416 161.416 294.613 157.953 288.33 155.041L286.456 159.084C292.351 161.816 296.459 164.888 298.986 168.213L302.533 165.517ZM288.37 155.061C282.152 152.028 274.173 148.946 264.463 145.809L263.094 150.049C272.691 153.15 280.455 156.157 286.416 159.065L288.37 155.061ZM264.461 145.808C251.777 141.726 242.698 136.19 236.972 129.345L233.554 132.205C240.006 139.915 249.938 145.815 263.096 150.05L264.461 145.808ZM236.986 129.362C231.26 122.38 228.357 113.837 228.357 103.596H223.901C223.901 114.742 227.087 124.318 233.54 132.188L236.986 129.362ZM228.357 103.596C228.357 91.8823 232.555 82.5671 240.939 75.4413L238.053 72.0465C228.614 80.0696 223.901 90.6558 223.901 103.596H228.357ZM240.939 75.4413C249.329 68.3091 261.01 64.61 276.254 64.61V60.1544C260.309 60.1544 247.484 64.0298 238.053 72.0465L240.939 75.4413ZM276.254 64.61C291.009 64.61 302.631 68.436 311.342 75.8828L314.237 72.4961C304.532 64.1999 291.797 60.1544 276.254 60.1544V64.61ZM311.358 75.8963C319.998 83.143 324.535 93.2633 324.82 106.54L329.275 106.444C328.966 92.0967 323.997 80.6818 314.221 72.4825L311.358 75.8963ZM327.047 104.264H301.874V108.72H327.047V104.264ZM304.101 106.492C304.101 102.339 302.932 98.3776 300.658 94.6406L296.852 96.9572C298.736 100.052 299.646 103.219 299.646 106.492H304.101ZM300.679 94.6764C298.389 90.7501 295.126 87.5865 290.957 85.1809L288.73 89.0402C292.284 91.0902 294.962 93.7187 296.83 96.9214L300.679 94.6764ZM291.011 85.2132C286.722 82.5737 281.541 81.3183 275.586 81.3183V85.7739C280.918 85.7739 285.242 86.8948 288.676 89.0079L291.011 85.2132ZM275.633 81.3188C268.246 81.1617 261.868 82.9741 256.65 86.8878L259.323 90.4522C263.61 87.237 268.965 85.6335 275.538 85.7734L275.633 81.3188ZM256.686 86.861C251.341 90.7029 248.63 96.0599 248.63 102.705H253.085C253.085 97.4686 255.127 93.4689 259.287 90.479L256.686 86.861ZM248.63 102.705C248.63 110.682 251.857 117.081 258.247 121.669L260.845 118.049C255.65 114.319 253.085 109.282 253.085 102.705H248.63ZM258.278 121.691C264.342 125.889 274.023 130.127 287.141 134.45L288.536 130.219C275.515 125.928 266.334 121.849 260.814 118.027L258.278 121.691ZM287.146 134.452C295.174 137.079 302.211 140.277 308.275 144.031L310.621 140.242C304.209 136.274 296.84 132.936 288.531 130.217L287.146 134.452ZM308.328 144.063C314.412 147.599 319.106 152.167 322.464 157.763L326.284 155.471C322.514 149.186 317.257 144.1 310.568 140.211L308.328 144.063ZM322.499 157.819C325.919 163.156 327.716 170.129 327.716 178.895H332.171C332.171 169.542 330.255 161.663 326.25 155.415L322.499 157.819ZM327.716 178.895C327.716 186.821 325.74 193.991 321.803 200.46L325.609 202.777C329.988 195.581 332.171 187.604 332.171 178.895H327.716ZM321.814 200.441C317.895 206.739 312.205 211.824 304.65 215.673L306.672 219.643C314.86 215.472 321.199 209.864 325.597 202.795L321.814 200.441ZM304.634 215.681C297.301 219.489 288.316 221.446 277.591 221.446V225.901C288.847 225.901 298.575 223.848 306.687 219.635L304.634 215.681ZM403.15 221H400.923V223.228H403.15V221ZM403.15 65.0555V62.8278H400.923V65.0555H403.15ZM485.355 71.2933L484.299 73.2548L484.314 73.2628L484.329 73.2705L485.355 71.2933ZM502.509 88.0017L500.533 89.0308V89.0308L502.509 88.0017ZM502.509 137.013L500.533 135.984V135.984L502.509 137.013ZM485.355 153.944L486.382 155.921L486.397 155.913L486.412 155.905L485.355 153.944ZM426.765 159.959V157.731H424.537V159.959H426.765ZM426.765 221V223.228H428.993V221H426.765ZM426.765 138.795H424.537V141.023H426.765V138.795ZM476.89 131.666L475.315 130.091L475.302 130.103L475.29 130.116L476.89 131.666ZM476.89 93.5711L475.266 95.0964L475.29 95.1218L475.315 95.1464L476.89 93.5711ZM426.765 86.2194V83.9917H424.537V86.2194H426.765ZM405.378 221V65.0555H400.923V221H405.378ZM403.15 67.2833H455.949V62.8278H403.15V67.2833ZM455.949 67.2833C467.587 67.2833 476.995 69.322 484.299 73.2548L486.412 69.3318C478.269 64.9476 468.074 62.8278 455.949 62.8278V67.2833ZM484.329 73.2705C491.681 77.0878 497.05 82.3418 500.533 89.0308L504.485 86.9726C500.543 79.4037 494.476 73.5188 486.382 69.3162L484.329 73.2705ZM500.533 89.0308C504.058 95.7983 505.851 103.605 505.851 112.507H510.307C510.307 102.993 508.386 94.4628 504.485 86.9726L500.533 89.0308ZM505.851 112.507C505.851 121.41 504.058 129.216 500.533 135.984L504.485 138.042C508.386 130.552 510.307 122.021 510.307 112.507H505.851ZM500.533 135.984C497.046 142.68 491.667 148.015 484.299 151.982L486.412 155.905C494.49 151.555 500.547 145.603 504.485 138.042L500.533 135.984ZM484.329 151.967C477.017 155.763 467.597 157.731 455.949 157.731V162.187C468.063 162.187 478.248 160.145 486.382 155.921L484.329 151.967ZM455.949 157.731H426.765V162.187H455.949V157.731ZM424.537 159.959V221H428.993V159.959H424.537ZM426.765 218.772H403.15V223.228H426.765V218.772ZM426.765 141.023H454.835V136.567H426.765V141.023ZM454.835 141.023C465.224 141.023 473.289 138.584 478.49 133.216L475.29 130.116C471.282 134.253 464.644 136.567 454.835 136.567V141.023ZM478.465 133.241C483.715 127.992 486.247 120.996 486.247 112.507H481.791C481.791 120.059 479.57 125.835 475.315 130.091L478.465 133.241ZM486.247 112.507C486.247 104.154 483.707 97.2375 478.465 91.9958L475.315 95.1464C479.578 99.4099 481.791 105.118 481.791 112.507H486.247ZM478.514 92.0458C473.316 86.5129 465.241 83.9917 454.835 83.9917V88.4472C464.627 88.4472 471.256 90.8271 475.266 95.0964L478.514 92.0458ZM454.835 83.9917H426.765V88.4472H454.835V83.9917ZM424.537 86.2194V138.795H428.993V86.2194H424.537ZM599.553 213.871L600.843 212.054V212.054L599.553 213.871ZM578.389 186.024L576.326 186.864V186.864L578.389 186.024ZM578.389 100.032L576.326 99.1911V99.1911L578.389 100.032ZM599.553 72.1844L598.264 70.3677V70.3677L599.553 72.1844ZM665.05 72.1844L663.747 73.9912L663.754 73.9962L663.761 74.0012L665.05 72.1844ZM686.214 100.032L688.277 99.1911V99.1911L686.214 100.032ZM686.214 186.024L688.277 186.864V186.864L686.214 186.024ZM665.05 213.871L663.761 212.054L663.754 212.059L663.747 212.064L665.05 213.871ZM659.258 186.469L661.094 187.73L661.099 187.724L661.103 187.718L659.258 186.469ZM659.258 99.8089L657.413 101.057L657.417 101.063L657.421 101.07L659.258 99.8089ZM605.123 99.8089L603.278 98.5606L603.273 98.5668L605.123 99.8089ZM605.123 186.469L603.265 187.699L603.275 187.715L603.286 187.73L605.123 186.469ZM632.302 221.446C620.083 221.446 609.63 218.291 600.843 212.054L598.264 215.688C607.893 222.521 619.273 225.901 632.302 225.901V221.446ZM600.843 212.054C592.03 205.8 585.218 196.881 580.453 185.183L576.326 186.864C581.363 199.226 588.661 208.873 598.264 215.688L600.843 212.054ZM580.453 185.183C575.686 173.484 573.266 159.451 573.266 143.028H568.81C568.81 159.873 571.291 174.504 576.326 186.864L580.453 185.183ZM573.266 143.028C573.266 126.604 575.686 112.572 580.453 100.872L576.326 99.1911C571.291 111.551 568.81 126.183 568.81 143.028H573.266ZM580.453 100.872C585.218 89.1742 592.03 80.2556 600.843 74.0012L598.264 70.3677C588.661 77.1829 581.363 86.8292 576.326 99.1911L580.453 100.872ZM600.843 74.0012C609.63 67.7649 620.083 64.61 632.302 64.61V60.1544C619.273 60.1544 607.893 63.5343 598.264 70.3677L600.843 74.0012ZM632.302 64.61C644.676 64.61 655.119 67.7683 663.747 73.9912L666.353 70.3776C656.861 63.531 645.472 60.1544 632.302 60.1544V64.61ZM663.761 74.0012C672.574 80.2556 679.385 89.1742 684.151 100.872L688.277 99.1911C683.241 86.8292 675.943 77.1829 666.339 70.3677L663.761 74.0012ZM684.151 100.872C688.917 112.572 691.338 126.604 691.338 143.028H695.793C695.793 126.183 693.313 111.551 688.277 99.1911L684.151 100.872ZM691.338 143.028C691.338 159.451 688.917 173.484 684.151 185.183L688.277 186.864C693.313 174.504 695.793 159.873 695.793 143.028H691.338ZM684.151 185.183C679.385 196.881 672.574 205.8 663.761 212.054L666.339 215.688C675.943 208.873 683.241 199.226 688.277 186.864L684.151 185.183ZM663.747 212.064C655.119 218.287 644.676 221.446 632.302 221.446V225.901C645.472 225.901 656.861 222.525 666.353 215.678L663.747 212.064ZM632.302 203.623C644.244 203.623 653.888 198.227 661.094 187.73L657.421 185.209C650.964 194.614 642.637 199.168 632.302 199.168V203.623ZM661.103 187.718C668.286 177.099 671.733 162.109 671.733 143.028H667.278C667.278 161.671 663.893 175.641 657.413 185.221L661.103 187.718ZM671.733 143.028C671.733 123.95 668.288 109.025 661.094 98.548L657.421 101.07C663.892 110.494 667.278 124.382 667.278 143.028H671.733ZM661.103 98.5606C653.903 87.9171 644.259 82.4322 632.302 82.4322V86.8878C642.622 86.8878 650.949 91.5021 657.413 101.057L661.103 98.5606ZM632.302 82.4322C620.207 82.4322 610.484 87.907 603.278 98.5606L606.968 101.057C613.425 91.5123 621.821 86.8878 632.302 86.8878V82.4322ZM603.273 98.5668C596.239 109.04 592.87 123.957 592.87 143.028H597.326C597.326 124.375 600.64 110.479 606.972 101.051L603.273 98.5668ZM592.87 143.028C592.87 162.102 596.241 177.084 603.265 187.699L606.981 185.24C600.638 175.656 597.326 161.678 597.326 143.028H592.87ZM603.286 187.73C610.5 198.237 620.222 203.623 632.302 203.623V199.168C621.807 199.168 613.41 194.604 606.959 185.209L603.286 187.73ZM798.63 221H796.402V223.228H798.63V221ZM798.63 86.2194H800.857V83.9917H798.63V86.2194ZM756.747 86.2194H754.52V88.4472H756.747V86.2194ZM756.747 65.0555V62.8278H754.52V65.0555H756.747ZM864.126 65.0555H866.354V62.8278H864.126V65.0555ZM864.126 86.2194V88.4472H866.354V86.2194H864.126ZM822.244 86.2194V83.9917H820.016V86.2194H822.244ZM822.244 221V223.228H824.472V221H822.244ZM800.857 221V86.2194H796.402V221H800.857ZM798.63 83.9917H756.747V88.4472H798.63V83.9917ZM758.975 86.2194V65.0555H754.52V86.2194H758.975ZM756.747 67.2833H864.126V62.8278H756.747V67.2833ZM861.899 65.0555V86.2194H866.354V65.0555H861.899ZM864.126 83.9917H822.244V88.4472H864.126V83.9917ZM820.016 86.2194V221H824.472V86.2194H820.016ZM822.244 218.772H798.63V223.228H822.244V218.772ZM961.17 217.658L960.189 219.658L960.196 219.662L960.203 219.665L961.17 217.658ZM941.789 200.504L939.895 201.678L939.904 201.692L939.912 201.705L941.789 200.504ZM934.66 173.994V171.766H932.4L932.432 174.026L934.66 173.994ZM959.611 173.994L961.838 173.952L961.797 171.766H959.611V173.994ZM967.631 194.267L965.992 195.776L966.013 195.798L966.034 195.82L967.631 194.267ZM1010.4 196.494L1011.82 198.219L1011.83 198.206L1011.85 198.193L1010.4 196.494ZM1013.3 166.865L1011.53 168.213L1011.56 168.253L1011.59 168.291L1013.3 166.865ZM999.934 157.063L998.957 159.065L998.977 159.075L998.997 159.084L999.934 157.063ZM976.319 147.929L977.004 145.809L977.002 145.808L976.319 147.929ZM947.804 130.775L946.081 132.188L946.088 132.196L946.095 132.205L947.804 130.775ZM1025.33 74.1894L1023.88 75.8828L1023.89 75.8896L1023.9 75.8963L1025.33 74.1894ZM1039.59 106.492V108.72H1041.86L1041.82 106.444L1039.59 106.492ZM1014.41 106.492H1012.19V108.72H1014.41V106.492ZM1011.3 95.7989L1009.37 96.9214L1009.38 96.9394L1009.39 96.9572L1011.3 95.7989ZM1002.38 87.1106L1001.22 89.0079L1001.24 89.0244L1001.27 89.0402L1002.38 87.1106ZM988.127 83.5461L988.079 85.7734L988.103 85.7739H988.127V83.5461ZM970.527 88.67L971.827 90.479L971.846 90.4658L971.864 90.4522L970.527 88.67ZM972.087 119.859L970.787 121.669L970.803 121.68L970.818 121.691L972.087 119.859ZM1000.38 132.334L999.682 134.45L999.686 134.452L1000.38 132.334ZM1021.99 142.137L1020.82 144.031L1020.84 144.047L1020.87 144.063L1021.99 142.137ZM1036.91 156.617L1035 157.763L1035.02 157.792L1035.04 157.819L1036.91 156.617ZM1036.25 201.618L1038.14 202.795L1038.14 202.786L1038.15 202.777L1036.25 201.618ZM1018.2 217.658L1017.19 215.673L1017.18 215.677L1017.17 215.681L1018.2 217.658ZM990.132 221.446C979.413 221.446 970.101 219.491 962.138 215.652L960.203 219.665C968.874 223.846 978.869 225.901 990.132 225.901V221.446ZM962.152 215.659C954.337 211.822 948.191 206.375 943.665 199.304L939.912 201.705C944.892 209.486 951.667 215.475 960.189 219.658L962.152 215.659ZM943.682 199.331C939.325 192.303 937.031 183.876 936.887 173.962L932.432 174.026C932.586 184.607 935.044 193.854 939.895 201.678L943.682 199.331ZM934.66 176.222H959.611V171.766H934.66V176.222ZM957.384 174.036C957.542 182.436 960.415 189.72 965.992 195.776L969.27 192.757C964.451 187.526 961.977 181.294 961.838 173.952L957.384 174.036ZM966.034 195.82C971.896 201.845 979.956 204.737 989.909 204.737V200.282C980.852 200.282 974.059 197.678 969.228 192.713L966.034 195.82ZM989.909 204.737C998.99 204.737 1006.39 202.66 1011.82 198.219L1008.99 194.77C1004.62 198.349 998.353 200.282 989.909 200.282V204.737ZM1011.85 198.193C1017.26 193.603 1019.98 187.631 1019.98 180.454H1015.53C1015.53 186.348 1013.36 191.069 1008.96 194.796L1011.85 198.193ZM1019.98 180.454C1019.98 174.539 1018.38 169.475 1015.01 165.439L1011.59 168.291C1014.17 171.384 1015.53 175.38 1015.53 180.454H1019.98ZM1015.07 165.517C1011.96 161.416 1007.15 157.953 1000.87 155.041L998.997 159.084C1004.89 161.816 1009 164.888 1011.53 168.213L1015.07 165.517ZM1000.91 155.061C994.693 152.028 986.714 148.946 977.004 145.809L975.634 150.049C985.232 153.15 992.996 156.157 998.957 159.065L1000.91 155.061ZM977.002 145.808C964.317 141.726 955.239 136.19 949.512 129.345L946.095 132.205C952.547 139.915 962.479 145.815 975.637 150.05L977.002 145.808ZM949.526 129.362C943.801 122.38 940.898 113.837 940.898 103.596H936.442C936.442 114.742 939.628 124.318 946.081 132.188L949.526 129.362ZM940.898 103.596C940.898 91.8823 945.096 82.5671 953.479 75.4413L950.594 72.0465C941.155 80.0696 936.442 90.6558 936.442 103.596H940.898ZM953.479 75.4413C961.87 68.3091 973.551 64.61 988.795 64.61V60.1544C972.85 60.1544 960.025 64.0298 950.594 72.0465L953.479 75.4413ZM988.795 64.61C1003.55 64.61 1015.17 68.436 1023.88 75.8828L1026.78 72.4961C1017.07 64.1999 1004.34 60.1544 988.795 60.1544V64.61ZM1023.9 75.8963C1032.54 83.143 1037.08 93.2633 1037.36 106.54L1041.82 106.444C1041.51 92.0967 1036.54 80.6818 1026.76 72.4825L1023.9 75.8963ZM1039.59 104.264H1014.41V108.72H1039.59V104.264ZM1016.64 106.492C1016.64 102.339 1015.47 98.3776 1013.2 94.6406L1009.39 96.9572C1011.28 100.052 1012.19 103.219 1012.19 106.492H1016.64ZM1013.22 94.6764C1010.93 90.7501 1007.67 87.5865 1003.5 85.1809L1001.27 89.0402C1004.82 91.0902 1007.5 93.7187 1009.37 96.9214L1013.22 94.6764ZM1003.55 85.2132C999.263 82.5737 994.082 81.3183 988.127 81.3183V85.7739C993.458 85.7739 997.783 86.8948 1001.22 89.0079L1003.55 85.2132ZM988.174 81.3188C980.786 81.1617 974.409 82.9741 969.19 86.8878L971.864 90.4522C976.151 87.237 981.506 85.6335 988.079 85.7734L988.174 81.3188ZM969.227 86.861C963.882 90.7029 961.17 96.0599 961.17 102.705H965.626C965.626 97.4686 967.667 93.4689 971.827 90.479L969.227 86.861ZM961.17 102.705C961.17 110.682 964.398 117.081 970.787 121.669L973.386 118.049C968.191 114.319 965.626 109.282 965.626 102.705H961.17ZM970.818 121.691C976.883 125.889 986.564 130.127 999.682 134.45L1001.08 130.219C988.056 125.928 978.875 121.849 973.355 118.027L970.818 121.691ZM999.686 134.452C1007.71 137.079 1014.75 140.277 1020.82 144.031L1023.16 140.242C1016.75 136.274 1009.38 132.936 1001.07 130.217L999.686 134.452ZM1020.87 144.063C1026.95 147.599 1031.65 152.167 1035 157.763L1038.83 155.471C1035.05 149.186 1029.8 144.1 1023.11 140.211L1020.87 144.063ZM1035.04 157.819C1038.46 163.156 1040.26 170.129 1040.26 178.895H1044.71C1044.71 169.542 1042.8 161.663 1038.79 155.415L1035.04 157.819ZM1040.26 178.895C1040.26 186.821 1038.28 193.991 1034.34 200.46L1038.15 202.777C1042.53 195.581 1044.71 187.604 1044.71 178.895H1040.26ZM1034.36 200.441C1030.44 206.739 1024.75 211.824 1017.19 215.673L1019.21 219.643C1027.4 215.472 1033.74 209.864 1038.14 202.795L1034.36 200.441ZM1017.17 215.681C1009.84 219.489 1000.86 221.446 990.132 221.446V225.901C1001.39 225.901 1011.12 223.848 1019.23 219.635L1017.17 215.681Z" fill="#212121" mask="url(#path-1-outside-1_51_222)"/>
<path d="M64.3925 44.5555L64.3925 133.667" stroke="#212121" stroke-width="27.8472"/>
<path d="M8.698 100.25L64.3924 144.806L120.087 100.25" stroke="#212121" stroke-width="27.8472" stroke-linejoin="bevel"/>
<circle cx="64.3924" cy="200.5" r="22.2778" fill="#212121"/>
</svg>
